HIERARCHY
ROOT Hips
{
	OFFSET 0.000000 97.167313 0.000000
	CHANNELS 6 Xposition Yposition Zposition Xrotation Yrotation Zrotation
	JOINT Spine
	{
		OFFSET 0.000000 13.784798 0.064400
		CHANNELS 3 Xrotation Yrotation Zrotation
		JOINT Spine1
		{
			OFFSET 0.000000 12.037903 0.404700
			CHANNELS 3 Xrotation Yrotation Zrotation
			JOINT Spine2
			{
				OFFSET 0.000000 17.795601 0.420200
				CHANNELS 3 Xrotation Yrotation Zrotation
				JOINT Neck
				{
					OFFSET 0.000000 39.131302 11.954600
					CHANNELS 3 Xrotation Yrotation Zrotation
					JOINT Head
					{
						OFFSET 0.000000 14.456192 15.627699
						CHANNELS 3 Xrotation Yrotation Zrotation
						JOINT HeadTop_End
						{
							OFFSET 0.000000 15.703506 7.603401
							CHANNELS 3 Xrotation Yrotation Zrotation
							End Site
							{
								OFFSET 0.000000 17.447403 0.000000
							}
						}
					}
				}
				JOINT LeftShoulder
				{
					OFFSET 17.399500 24.608795 1.168800
					CHANNELS 3 Xrotation Yrotation Zrotation
					JOINT LeftArm
					{
						OFFSET 18.980635 5.765305 1.818600
						CHANNELS 3 Xrotation Yrotation Zrotation
						JOINT LeftForeArm
						{
							OFFSET 49.290169 0.000000 0.000000
							CHANNELS 3 Xrotation Yrotation Zrotation
							JOINT LeftHand
							{
								OFFSET 31.562012 0.000000 0.000000
								CHANNELS 3 Xrotation Yrotation Zrotation
								JOINT LeftHandThumb1
								{
									OFFSET 6.133995 -4.388519 7.076070
									CHANNELS 3 Xrotation Yrotation Zrotation
									JOINT LeftHandThumb2
									{
										OFFSET 6.037666 -3.485840 3.485847
										CHANNELS 3 Xrotation Yrotation Zrotation
										JOINT LeftHandThumb3
										{
											OFFSET 6.496506 -3.750763 3.750761
											CHANNELS 3 Xrotation Yrotation Zrotation
											JOINT LeftHandThumb4
											{
												OFFSET 5.616882 -3.242905 3.242910
												CHANNELS 3 Xrotation Yrotation Zrotation
												End Site
												{
													OFFSET -1.254608 7.132141 0.375429
												}
											}
										}
									}
								}
								JOINT LeftHandPinky1
								{
									OFFSET 18.920792 -0.453171 -11.426712
									CHANNELS 3 Xrotation Yrotation Zrotation
									JOINT LeftHandPinky2
									{
										OFFSET 4.919586 0.000000 0.000000
										CHANNELS 3 Xrotation Yrotation Zrotation
										JOINT LeftHandPinky3
										{
											OFFSET 5.233047 0.000000 0.000000
											CHANNELS 3 Xrotation Yrotation Zrotation
											JOINT LeftHandPinky4
											{
												OFFSET 5.571716 0.000000 0.000000
												CHANNELS 3 Xrotation Yrotation Zrotation
												End Site
												{
													OFFSET -3.459808 4.342407 -0.466164
												}
											}
										}
									}
								}
								JOINT LeftHandRing1
								{
									OFFSET 22.726120 -0.094986 -6.500475
									CHANNELS 3 Xrotation Yrotation Zrotation
									JOINT LeftHandRing2
									{
										OFFSET 6.408615 0.000000 0.000000
										CHANNELS 3 Xrotation Yrotation Zrotation
										JOINT LeftHandRing3
										{
											OFFSET 6.150223 0.000000 0.000000
											CHANNELS 3 Xrotation Yrotation Zrotation
											JOINT LeftHandRing4
											{
												OFFSET 6.145386 0.000000 0.000000
												CHANNELS 3 Xrotation Yrotation Zrotation
												End Site
												{
													OFFSET -3.671402 4.923981 -0.202372
												}
											}
										}
									}
								}
								JOINT LeftHandMiddle1
								{
									OFFSET 23.373947 0.000000 0.000001
									CHANNELS 3 Xrotation Yrotation Zrotation
									JOINT LeftHandMiddle2
									{
										OFFSET 6.996567 0.000000 0.000000
										CHANNELS 3 Xrotation Yrotation Zrotation
										JOINT LeftHandMiddle3
										{
											OFFSET 7.015945 0.000000 0.000000
											CHANNELS 3 Xrotation Yrotation Zrotation
											JOINT LeftHandMiddle4
											{
												OFFSET 7.721573 0.000000 0.000000
												CHANNELS 3 Xrotation Yrotation Zrotation
												End Site
												{
													OFFSET -4.651108 6.158463 0.251582
												}
											}
										}
									}
								}
								JOINT LeftHandIndex1
								{
									OFFSET 21.310577 -0.490082 6.209344
									CHANNELS 3 Xrotation Yrotation Zrotation
									JOINT LeftHandIndex2
									{
										OFFSET 7.536453 0.000000 0.000000
										CHANNELS 3 Xrotation Yrotation Zrotation
										JOINT LeftHandIndex3
										{
											OFFSET 7.512344 0.000000 0.000000
											CHANNELS 3 Xrotation Yrotation Zrotation
											JOINT LeftHandIndex4
											{
												OFFSET 10.212402 0.000000 0.000001
												CHANNELS 3 Xrotation Yrotation Zrotation
												End Site
												{
													OFFSET -5.180801 8.690506 1.388433
												}
											}
										}
									}
								}
							}
						}
					}
				}
				JOINT RightShoulder
				{
					OFFSET -17.399500 24.608795 1.168800
					CHANNELS 3 Xrotation Yrotation Zrotation
					JOINT RightArm
					{
						OFFSET -18.980635 5.765305 1.818600
						CHANNELS 3 Xrotation Yrotation Zrotation
						JOINT RightForeArm
						{
							OFFSET -49.290169 0.000000 0.000000
							CHANNELS 3 Xrotation Yrotation Zrotation
							JOINT RightHand
							{
								OFFSET -31.562012 0.000000 0.000000
								CHANNELS 3 Xrotation Yrotation Zrotation
								JOINT RightHandThumb1
								{
									OFFSET -6.133995 -4.388519 7.076070
									CHANNELS 3 Xrotation Yrotation Zrotation
									JOINT RightHandThumb2
									{
										OFFSET -6.037666 -3.485840 3.485847
										CHANNELS 3 Xrotation Yrotation Zrotation
										JOINT RightHandThumb3
										{
											OFFSET -6.496506 -3.750763 3.750761
											CHANNELS 3 Xrotation Yrotation Zrotation
											JOINT RightHandThumb4
											{
												OFFSET -5.616882 -3.242905 3.242910
												CHANNELS 3 Xrotation Yrotation Zrotation
												End Site
												{
													OFFSET 1.254608 7.132141 0.375429
												}
											}
										}
									}
								}
								JOINT RightHandIndex1
								{
									OFFSET -21.310577 -0.490082 6.209344
									CHANNELS 3 Xrotation Yrotation Zrotation
									JOINT RightHandIndex2
									{
										OFFSET -7.536453 0.000000 0.000000
										CHANNELS 3 Xrotation Yrotation Zrotation
										JOINT RightHandIndex3
										{
											OFFSET -7.512344 0.000000 0.000000
											CHANNELS 3 Xrotation Yrotation Zrotation
											JOINT RightHandIndex4
											{
												OFFSET -10.212402 0.000000 0.000001
												CHANNELS 3 Xrotation Yrotation Zrotation
												End Site
												{
													OFFSET 5.180801 8.690506 1.388433
												}
											}
										}
									}
								}
								JOINT RightHandMiddle1
								{
									OFFSET -23.373947 0.000000 0.000001
									CHANNELS 3 Xrotation Yrotation Zrotation
									JOINT RightHandMiddle2
									{
										OFFSET -6.996567 0.000000 0.000000
										CHANNELS 3 Xrotation Yrotation Zrotation
										JOINT RightHandMiddle3
										{
											OFFSET -7.015945 0.000000 0.000000
											CHANNELS 3 Xrotation Yrotation Zrotation
											JOINT RightHandMiddle4
											{
												OFFSET -7.721573 0.000000 0.000000
												CHANNELS 3 Xrotation Yrotation Zrotation
												End Site
												{
													OFFSET 4.651108 6.158463 0.251582
												}
											}
										}
									}
								}
								JOINT RightHandRing1
								{
									OFFSET -22.726120 -0.094986 -6.500475
									CHANNELS 3 Xrotation Yrotation Zrotation
									JOINT RightHandRing2
									{
										OFFSET -6.408615 0.000000 0.000000
										CHANNELS 3 Xrotation Yrotation Zrotation
										JOINT RightHandRing3
										{
											OFFSET -6.150223 0.000000 0.000000
											CHANNELS 3 Xrotation Yrotation Zrotation
											JOINT RightHandRing4
											{
												OFFSET -6.145386 0.000000 0.000000
												CHANNELS 3 Xrotation Yrotation Zrotation
												End Site
												{
													OFFSET 3.671402 4.923981 -0.202372
												}
											}
										}
									}
								}
								JOINT RightHandPinky1
								{
									OFFSET -18.920792 -0.453171 -11.426712
									CHANNELS 3 Xrotation Yrotation Zrotation
									JOINT RightHandPinky2
									{
										OFFSET -4.919586 0.000000 0.000000
										CHANNELS 3 Xrotation Yrotation Zrotation
										JOINT RightHandPinky3
										{
											OFFSET -5.233047 0.000000 0.000000
											CHANNELS 3 Xrotation Yrotation Zrotation
											JOINT RightHandPinky4
											{
												OFFSET -5.571716 0.000000 0.000000
												CHANNELS 3 Xrotation Yrotation Zrotation
												End Site
												{
													OFFSET 3.459808 4.342407 -0.466164
												}
											}
										}
									}
								}
							}
						}
					}
				}
			}
		}
	}
	JOINT LeftUpLeg
	{
		OFFSET 19.899099 -7.885101 -3.429500
		CHANNELS 3 Xrotation Yrotation Zrotation
		JOINT LeftLeg
		{
			OFFSET 1.745560 -36.997807 10.304700
			CHANNELS 3 Xrotation Yrotation Zrotation
			JOINT LeftFoot
			{
				OFFSET -1.745558 -29.803308 -13.615400
				CHANNELS 3 Xrotation Yrotation Zrotation
				JOINT LeftToeBase
				{
					OFFSET 1.181900 -18.539904 15.226099
					CHANNELS 3 Xrotation Yrotation Zrotation
					JOINT LeftToe_End
					{
						OFFSET -0.863701 1.402801 16.534700
						CHANNELS 3 Xrotation Yrotation Zrotation
						End Site
						{
							OFFSET 0.000000 16.616566 0.000000
						}
					}
				}
			}
		}
	}
	JOINT RightUpLeg
	{
		OFFSET -19.899099 -7.885101 -3.429500
		CHANNELS 3 Xrotation Yrotation Zrotation
		JOINT RightLeg
		{
			OFFSET -1.745560 -36.997807 10.304700
			CHANNELS 3 Xrotation Yrotation Zrotation
			JOINT RightFoot
			{
				OFFSET 1.745558 -29.803308 -13.615400
				CHANNELS 3 Xrotation Yrotation Zrotation
				JOINT RightToeBase
				{
					OFFSET -1.181900 -18.539904 15.226099
					CHANNELS 3 Xrotation Yrotation Zrotation
					JOINT RightToe_End
					{
						OFFSET 0.863701 1.402801 16.534700
						CHANNELS 3 Xrotation Yrotation Zrotation
						End Site
						{
							OFFSET 0.000000 16.616566 0.000000
						}
					}
				}
			}
		}
	}
}
MOTION
Frames: 4
Frame Time: 0.033333
4.026229 90.279625 2.478731 -4.565169 6.725876 -3.286364 0.046076 -1.470195 0.804853 0.430632 -0.633692 2.995373 0.435317 -0.525535 2.966170 5.301837 -1.801200 5.208538 6.394535 -4.077551 13.201993 0.000000 -0.000000 0.000001 0.486779 -7.729048 -12.389541 -5.563636 -39.914478 -65.146242 257.378248 -7.880013 249.557682 -4.725321 -27.815445 7.668364 -8.181767 -14.820942 -6.821296 10.227465 26.644674 -20.468520 -9.927026 68.971899 35.645811 0.000001 0.000002 0.000000 23.541920 30.765798 -73.333057 3.818062 5.487654 -69.635807 3.815925 5.486878 -69.613165 0.000004 0.000001 0.000001 11.657060 11.851634 -62.900086 3.795023 5.479095 -69.394531 3.824915 5.490195 -69.707169 -0.000003 0.000002 0.000000 2.148298 6.948715 -60.571648 3.759921 5.465842 -69.026513 3.882834 5.511175 -70.311531 -0.000001 -0.000001 0.000004 -2.783113 -14.058190 -59.246017 3.607580 5.405237 -67.418366 3.819319 5.488120 -69.648785 -0.000000 0.000001 0.000001 4.747152 -0.478016 5.310314 8.477049 8.961544 60.489958 0.000004 19.663718 -0.000007 -0.776768 0.074344 20.412995 0.411579 -1.503586 0.410833 9.562753 -42.050466 -3.821174 -3.014750 -32.078441 -20.086587 0.000001 0.000000 -0.000003 -1.863510 4.814426 19.876745 1.436600 -3.365871 46.217144 0.152218 -1.182147 14.673586 -0.000001 -0.000003 -0.000002 0.478802 -4.237939 24.802592 1.436598 -3.365881 46.217110 0.152216 -1.182150 14.673596 0.000001 0.000003 -0.000008 3.419497 -10.074297 26.516350 1.441627 -3.370662 46.302546 0.152243 -1.182240 14.674675 0.000001 0.000002 0.000000 4.171271 -17.279677 30.293047 2.170306 -3.938835 57.696220 0.152221 -1.182152 14.673586 -0.000001 0.000002 -0.000003 -8.326313 9.687481 20.203276 21.504559 -8.204444 6.165499 -12.940062 -2.933735 -18.483643 -2.055817 -0.000008 -0.000000 -0.000000 -0.000001 0.000000 4.361699 -5.856696 7.269923 17.861199 -6.660881 3.720576 -17.897196 -4.093636 -5.194946 -2.571410 -0.000006 -0.000000 0.000000 -0.000000 0.000000 
4.033155 90.278076 2.481077 -4.597752 6.734614 -3.286550 0.070231 -1.481066 0.790372 0.446580 -0.641093 2.986557 0.451304 -0.533011 2.957392 5.292804 -1.801228 5.213883 6.442939 -4.044238 13.173772 -0.000001 -0.000000 -0.000002 0.486766 -7.731079 -12.388631 -5.613588 -39.804765 -65.187674 257.271315 -8.215406 249.500281 -4.703755 -27.801634 7.754374 -8.181779 -14.820949 -6.821286 10.227461 26.644691 -20.468523 -9.926990 68.971899 35.645774 0.000005 -0.000002 -0.000002 23.541919 30.765815 -73.333064 3.818084 5.487676 -69.635807 3.815919 5.486892 -69.613158 0.000002 0.000002 -0.000005 11.657029 11.851638 -62.900093 3.795026 5.479099 -69.394558 3.824911 5.490200 -69.707162 -0.000000 0.000000 -0.000000 2.148288 6.948719 -60.571661 3.759904 5.465824 -69.026500 3.882827 5.511189 -70.311504 -0.000000 -0.000001 0.000001 -2.783125 -14.058185 -59.245990 3.607580 5.405251 -67.418338 3.819315 5.488130 -69.648778 -0.000001 -0.000000 -0.000001 4.752407 -0.480771 5.350343 8.486918 8.972636 60.508974 0.000008 19.712826 0.000016 -0.776728 0.094867 20.420850 0.411578 -1.503575 0.410846 9.562767 -42.050466 -3.821147 -3.014735 -32.078451 -20.086577 0.000001 0.000001 0.000003 -1.863511 4.814429 19.876738 1.436599 -3.365873 46.217144 0.152218 -1.182157 14.673584 -0.000001 -0.000005 -0.000000 0.478800 -4.237935 24.802611 1.436596 -3.365869 46.217148 0.152211 -1.182147 14.673579 0.000001 0.000000 -0.000004 3.419500 -10.074291 26.516372 1.441625 -3.370670 46.302525 0.152240 -1.182238 14.674672 -0.000002 -0.000001 -0.000000 4.171271 -17.279675 30.293081 2.170304 -3.938837 57.696220 0.152216 -1.182154 14.673587 0.000000 -0.000000 0.000002 -8.293985 9.683497 20.199531 21.522011 -8.210133 6.170970 -12.965771 -2.933063 -18.475158 -2.058441 0.000001 -0.000004 -0.000000 0.000000 0.000000 4.403748 -5.881995 7.271691 17.862821 -6.635849 3.724841 -17.906972 -4.089340 -5.210073 -2.585903 0.000006 -0.000000 0.000000 -0.000000 0.000000 
4.043178 90.277954 2.487539 -4.634619 6.729707 -3.279408 0.104588 -1.485378 0.771949 0.469256 -0.644033 2.977593 0.474062 -0.536050 2.948480 5.270414 -1.820067 5.223214 6.437359 -4.090741 13.120278 0.000001 0.000000 -0.000001 0.487216 -7.715645 -12.386422 -5.690510 -39.702879 -65.223881 257.161922 -8.561192 249.428372 -4.693025 -27.804780 7.796253 -8.181782 -14.820947 -6.821294 10.227460 26.644681 -20.468518 -9.927012 68.971906 35.645787 0.000001 0.000002 -0.000001 23.541902 30.765819 -73.333043 3.818082 5.487668 -69.635814 3.815905 5.486872 -69.613165 0.000003 0.000004 -0.000002 11.657017 11.851648 -62.900080 3.795032 5.479107 -69.394558 3.824912 5.490197 -69.707176 0.000002 -0.000001 0.000003 2.148283 6.948719 -60.571648 3.759961 5.465839 -69.026520 3.882841 5.511159 -70.311538 -0.000000 0.000000 0.000002 -2.783117 -14.058184 -59.245990 3.607599 5.405238 -67.418352 3.819325 5.488120 -69.648771 -0.000003 0.000003 -0.000003 4.761029 -0.496559 5.409941 8.497677 8.998096 60.495320 0.000007 19.718083 0.000002 -0.761794 0.105680 20.426862 0.411564 -1.503571 0.410886 9.562740 -42.050473 -3.821184 -3.014730 -32.078444 -20.086579 0.000002 -0.000001 0.000003 -1.863524 4.814437 19.876791 1.436611 -3.365877 46.217117 0.152215 -1.182153 14.673598 0.000001 -0.000001 -0.000001 0.478792 -4.237934 24.802618 1.436603 -3.365867 46.217131 0.152209 -1.182148 14.673584 -0.000003 -0.000000 -0.000004 3.419496 -10.074292 26.516379 1.441622 -3.370657 46.302546 0.152236 -1.182237 14.674673 -0.000002 -0.000002 -0.000005 4.171271 -17.279679 30.293074 2.170308 -3.938836 57.696247 0.152217 -1.182144 14.673584 0.000001 0.000001 0.000004 -8.230924 9.684872 20.185567 21.519879 -8.195605 6.177660 -12.998381 -2.927108 -18.478530 -2.059434 -0.000003 -0.000003 -0.000000 -0.000000 -0.000000 4.450836 -5.929745 7.256089 17.864121 -6.563402 3.740880 -17.913568 -4.083250 -5.226800 -2.579834 0.000005 0.000001 0.000000 -0.000001 -0.000000 
4.051013 90.279366 2.495869 -4.646113 6.711355 -3.272592 0.127642 -1.482056 0.759230 0.484501 -0.642001 2.973698 0.489375 -0.534081 2.944621 5.242441 -1.846675 5.225571 6.386449 -4.176341 13.031490 0.000000 -0.000000 -0.000002 0.487694 -7.694614 -12.387042 -5.735874 -39.607290 -65.222180 257.068868 -8.849269 249.345809 -4.700050 -27.768035 7.775649 -8.181775 -14.820938 -6.821291 10.227453 26.644660 -20.468513 -9.926958 68.971906 35.645750 0.000003 0.000001 -0.000002 23.541910 30.765802 -73.333043 3.818069 5.487675 -69.635793 3.815910 5.486873 -69.613151 -0.000000 0.000001 -0.000000 11.657035 11.851644 -62.900073 3.795064 5.479121 -69.394538 3.824917 5.490185 -69.707176 -0.000000 0.000001 0.000002 2.148302 6.948714 -60.571641 3.759934 5.465833 -69.026506 3.882839 5.511157 -70.311545 -0.000000 -0.000001 0.000008 -2.783108 -14.058221 -59.246003 3.607591 5.405249 -67.418379 3.819321 5.488132 -69.648791 -0.000002 0.000004 0.000004 4.769854 -0.517414 5.468349 8.509097 8.989165 60.470766 0.000003 19.697835 -0.000001 -0.726829 0.099332 20.428401 0.411571 -1.503582 0.410843 9.562732 -42.050456 -3.821202 -3.014719 -32.078451 -20.086572 0.000002 -0.000002 0.000001 -1.863515 4.814430 19.876771 1.436604 -3.365881 46.217120 0.152218 -1.182142 14.673594 -0.000000 0.000000 -0.000003 0.478792 -4.237939 24.802575 1.436594 -3.365871 46.217144 0.152215 -1.182157 14.673569 0.000002 0.000005 -0.000003 3.419497 -10.074296 26.516336 1.441623 -3.370663 46.302549 0.152234 -1.182235 14.674675 0.000001 0.000001 -0.000008 4.171267 -17.279684 30.293036 2.170310 -3.938839 57.696213 0.152218 -1.182154 14.673587 -0.000001 0.000001 -0.000001 -8.177074 9.695220 20.175747 21.493753 -8.171484 6.176304 -13.029889 -2.917403 -18.498154 -2.058068 0.000004 -0.000000 -0.000000 -0.000000 0.000000 4.472018 -5.967389 7.237943 17.859363 -6.484060 3.758493 -17.924734 -4.076600 -5.242974 -2.559996 0.000005 0.000001 0.000000 -0.000000 0.000000 
